<svg xmlns="http://www.w3.org/2000/svg" xmlns:xlink="http://www.w3.org/1999/xlink" width="500" zoomAndPan="magnify" viewBox="0 0 375 374.999991" height="500" preserveAspectRatio="xMidYMid meet" version="1.2"><defs><clipPath id="610af981c0"><path d="M 26.546875 100.722656 L 201.988281 100.722656 L 201.988281 232.046875 L 26.546875 232.046875 Z M 26.546875 100.722656 "/></clipPath><clipPath id="c6dad7e187"><path d="M 70.324219 100.722656 L 201.648438 100.722656 L 157.871094 232.046875 L 26.546875 232.046875 Z M 70.324219 100.722656 "/></clipPath><clipPath id="9884c9bb17"><path d="M 170.695312 145.53125 L 346 145.53125 L 346 276.855469 L 170.695312 276.855469 Z M 170.695312 145.53125 "/></clipPath><clipPath id="236c7a7278"><path d="M 214.46875 145.53125 L 345.792969 145.53125 L 302.015625 276.855469 L 170.695312 276.855469 Z M 214.46875 145.53125 "/></clipPath><clipPath id="d6bd2880f3"><path d="M 3.628906 100.722656 L 152.910156 100.722656 L 152.910156 232.046875 L 3.628906 232.046875 Z M 3.628906 100.722656 "/></clipPath><clipPath id="3e9401873f"><path d="M 16.886719 100.722656 L 139.480469 100.722656 C 143 100.722656 146.371094 102.121094 148.855469 104.605469 C 151.34375 107.09375 152.742188 110.464844 152.742188 113.980469 L 152.742188 218.789062 C 152.742188 222.304688 151.34375 225.675781 148.855469 228.164062 C 146.371094 230.648438 143 232.046875 139.480469 232.046875 L 16.886719 232.046875 C 13.371094 232.046875 10 230.648438 7.511719 228.164062 C 5.027344 225.675781 3.628906 222.304688 3.628906 218.789062 L 3.628906 113.980469 C 3.628906 110.464844 5.027344 107.09375 7.511719 104.605469 C 10 102.121094 13.371094 100.722656 16.886719 100.722656 Z M 16.886719 100.722656 "/></clipPath><clipPath id="c736887947"><path d="M 223.191406 145.53125 L 372.472656 145.53125 L 372.472656 276.855469 L 223.191406 276.855469 Z M 223.191406 145.53125 "/></clipPath><clipPath id="3a72d56274"><path d="M 236.449219 145.53125 L 359.046875 145.53125 C 362.5625 145.53125 365.933594 146.929688 368.421875 149.414062 C 370.90625 151.902344 372.304688 155.273438 372.304688 158.789062 L 372.304688 263.597656 C 372.304688 267.113281 370.90625 270.484375 368.421875 272.972656 C 365.933594 275.457031 362.5625 276.855469 359.046875 276.855469 L 236.449219 276.855469 C 232.933594 276.855469 229.5625 275.457031 227.078125 272.972656 C 224.589844 270.484375 223.191406 267.113281 223.191406 263.597656 L 223.191406 158.789062 C 223.191406 155.273438 224.589844 151.902344 227.078125 149.414062 C 229.5625 146.929688 232.933594 145.53125 236.449219 145.53125 Z M 236.449219 145.53125 "/></clipPath></defs><g id="b0586d6818"><g clip-rule="nonzero" clip-path="url(#610af981c0)"><g clip-rule="nonzero" clip-path="url(#c6dad7e187)"><path style=" stroke:none;fill-rule:nonzero;fill:#023e73;fill-opacity:1;" d="M 26.546875 100.722656 L 201.476562 100.722656 L 201.476562 232.046875 L 26.546875 232.046875 Z M 26.546875 100.722656 "/></g></g><g clip-rule="nonzero" clip-path="url(#9884c9bb17)"><g clip-rule="nonzero" clip-path="url(#236c7a7278)"><path style=" stroke:none;fill-rule:nonzero;fill:#023e73;fill-opacity:1;" d="M 170.695312 145.53125 L 345.621094 145.53125 L 345.621094 276.855469 L 170.695312 276.855469 Z M 170.695312 145.53125 "/></g></g><g clip-rule="nonzero" clip-path="url(#d6bd2880f3)"><g clip-rule="nonzero" clip-path="url(#3e9401873f)"><path style=" stroke:none;fill-rule:nonzero;fill:#023e73;fill-opacity:1;" d="M 3.628906 100.722656 L 152.910156 100.722656 L 152.910156 232.046875 L 3.628906 232.046875 Z M 3.628906 100.722656 "/></g></g><g clip-rule="nonzero" clip-path="url(#c736887947)"><g clip-rule="nonzero" clip-path="url(#3a72d56274)"><path style=" stroke:none;fill-rule:nonzero;fill:#023e73;fill-opacity:1;" d="M 223.191406 145.53125 L 372.472656 145.53125 L 372.472656 276.855469 L 223.191406 276.855469 Z M 223.191406 145.53125 "/></g></g><g style="fill:#ffffff;fill-opacity:1;"><g transform="translate(40.664097, 220.398696)"><path style="stroke:none" d="M 7.40625 -49.921875 C 5.8125 -50.554688 4.734375 -51.351562 4.171875 -52.3125 C 3.617188 -53.269531 3.34375 -54.625 3.34375 -56.375 L 3.34375 -68.5625 C 3.34375 -70.3125 3.617188 -71.660156 4.171875 -72.609375 C 4.734375 -73.566406 5.8125 -74.363281 7.40625 -75 L 84.078125 -112.515625 C 85.035156 -112.992188 85.914062 -113.234375 86.71875 -113.234375 C 87.664062 -113.234375 88.414062 -112.832031 88.96875 -112.03125 C 89.53125 -111.238281 89.8125 -110.203125 89.8125 -108.921875 L 89.8125 -91.96875 C 89.8125 -90.21875 89.53125 -88.90625 88.96875 -88.03125 C 88.414062 -87.15625 87.425781 -86.394531 86 -85.75 L 37.265625 -63.296875 L 37.265625 -61.625 L 86 -39.171875 C 87.425781 -38.535156 88.414062 -37.78125 88.96875 -36.90625 C 89.53125 -36.03125 89.8125 -34.71875 89.8125 -32.96875 L 89.8125 -16 C 89.8125 -13.132812 88.78125 -11.703125 86.71875 -11.703125 C 85.914062 -11.703125 85.035156 -11.941406 84.078125 -12.421875 Z M 7.40625 -49.921875 "/></g></g><g style="fill:#ffffff;fill-opacity:1;"><g transform="translate(341.830823, 154.59201)"><path style="stroke:none" d="M -7.40625 49.921875 C -5.8125 50.554688 -4.734375 51.351562 -4.171875 52.3125 C -3.617188 53.269531 -3.34375 54.625 -3.34375 56.375 L -3.34375 68.5625 C -3.34375 70.3125 -3.617188 71.660156 -4.171875 72.609375 C -4.734375 73.566406 -5.8125 74.363281 -7.40625 75 L -84.078125 112.515625 C -85.035156 112.992188 -85.914062 113.234375 -86.71875 113.234375 C -87.664062 113.234375 -88.414062 112.832031 -88.96875 112.03125 C -89.53125 111.238281 -89.8125 110.203125 -89.8125 108.921875 L -89.8125 91.96875 C -89.8125 90.21875 -89.53125 88.90625 -88.96875 88.03125 C -88.414062 87.15625 -87.425781 86.394531 -86 85.75 L -37.265625 63.296875 L -37.265625 61.625 L -86 39.171875 C -87.425781 38.535156 -88.414062 37.78125 -88.96875 36.90625 C -89.53125 36.03125 -89.8125 34.71875 -89.8125 32.96875 L -89.8125 16 C -89.8125 13.132812 -88.78125 11.703125 -86.71875 11.703125 C -85.914062 11.703125 -85.035156 11.941406 -84.078125 12.421875 Z M -7.40625 49.921875 "/></g></g></g></svg>